<?xml version="1.0" encoding="UTF-8"?>
<svg xmlns="http://www.w3.org/2000/svg" xmlns:xlink="http://www.w3.org/1999/xlink" width="144pt" height="144pt" viewBox="0 0 144 144" version="1.1">
<g id="surface2222728">
<path style=" stroke:none;fill-rule:nonzero;fill:rgb(100%,100%,100%);fill-opacity:1;" d="M 144 25.804688 C 138.609375 28.195312 133.195312 30 127.195312 30.609375 C 133.195312 27 138 21 140.390625 14.390625 C 134.390625 18 128.390625 20.390625 121.804688 21.609375 C 115.804688 15.609375 108 12 99.609375 12 C 83.390625 12 70.195312 25.195312 70.195312 41.390625 C 70.195312 43.804688 70.195312 46.195312 70.804688 48 C 46.195312 46.804688 24.609375 35.390625 10.195312 17.390625 C 7.195312 21.609375 6 27 6 32.390625 C 6 42.609375 11.390625 51.609375 19.195312 57 C 14.390625 56.390625 9.609375 55.195312 6 53.390625 C 6 53.390625 6 53.390625 6 54 C 6 68.390625 16.195312 80.390625 29.390625 82.804688 C 27 83.390625 24.609375 84 21.609375 84 C 19.804688 84 18 84 16.195312 83.390625 C 19.804688 95.390625 30.609375 103.804688 43.804688 103.804688 C 33.609375 111.609375 21 116.390625 7.195312 116.390625 C 4.804688 116.390625 2.390625 116.390625 0 115.804688 C 13.195312 124.195312 28.804688 129 45 129 C 99.609375 129 129 84 129 45 C 129 43.804688 129 42.609375 129 41.390625 C 135 37.195312 139.804688 31.804688 144 25.804688 "/>
</g>
</svg>
